# xmcd
#
# Track frame offsets:
#        150
#        12315
#        26662
#        40505
#        52825
#        66785
#        80272
#        92655
#        105820
#        118562
#        132440
#        147152
#        159575
#        173560
#        186875
#
# Disc length: 2665 seconds
#
# Revision: 1
# Processed by: cddbd v1.5.1PL2 Copyright (c) Steve Scherf et al.
# Submitted via: ExactAudioCopy v0.95b3
#
DISCID=b10a670f
DTITLE=Little Walter - The Best Of Little Walter
DYEAR=1900
DGENRE=Blues
TTITLE0=My Babe
TTITLE1=Sad Hours
TTITLE2=Your're So Fine
TTITLE3=Last Night
TTITLE4=Blues With A Feeling
TTITLE5=Can't Hold Out Much Longer
TTITLE6=Juke
TTITLE7=Mean Old World
TTITLE8=Off The Wall
TTITLE9=You'd Better Watch Yourself
TTITLE10=Blue Light
TTITLE11=Tell Me Mama
TTITLE12=Juke (Alternate)
TTITLE13=Off The Wall (Alternate)
TTITLE14=Last Night (First Version)
EXTD=
EXTT0=
EXTT1=
EXTT2=
EXTT3=
EXTT4=
EXTT5=
EXTT6=
EXTT7=
EXTT8=
EXTT9=
EXTT10=
EXTT11=
EXTT12=
EXTT13=
EXTT14=
PLAYORDER=
